<svg width="100" height="100" viewBox="0 0 100 100" fill="none" xmlns="http://www.w3.org/2000/svg">
<path d="M55.5214 26.0405C50.8349 23.4418 48.2079 23.2006 43.5214 26.0405C37.3746 30.5589 35.3888 33.1817 34.0214 38.0405C31.7099 48.1847 32.7043 51.5746 43.5214 48.5405C47.6932 49.8136 50.2044 50.102 55.5214 48.5405C65.8593 51.4605 67.9968 49.5648 66.0214 39.0405C63.1786 33.7406 61.4128 29.5774 55.5214 26.0405Z" fill="black" stroke="black"/>
<path d="M76.7145 10.623C76.4808 7.95397 75.2399 7.30307 71.951 6.96797C68.0351 6.94859 66.2921 4.82156 65.0022 8.49118L58.9004 18.3447C58.1502 18.8001 57.7819 19.1789 57.8322 19.6655L53.5005 26.9843L56.4765 28.1338L61.1479 20.6169C61.4129 20.2642 61.5884 19.7389 61.7407 19.0293L67.7631 10.713C70.5309 10.7167 69.2207 12.076 76.7145 10.623Z" fill="black"/>
<path d="M65.0022 8.49118C66.2921 4.82156 68.0351 6.94859 71.951 6.96797C75.2399 7.30307 76.4808 7.95397 76.7145 10.623C69.2207 12.076 70.5309 10.7167 67.7631 10.713M65.0022 8.49118C64.8749 10.2193 66.2936 10.2498 67.7631 10.713M65.0022 8.49118L58.9004 18.3447M65.0022 8.49118L67.7631 10.713M67.7631 10.713L61.7407 19.0293M58.9004 18.3447L61.7407 19.0293M58.9004 18.3447L60.7113 17.3116L61.7407 19.0293M58.9004 18.3447C58.1502 18.8001 57.7819 19.1789 57.8322 19.6655M61.7407 19.0293C61.5884 19.7389 61.4129 20.2642 61.1479 20.6169M57.8322 19.6655C57.8684 20.016 58.1217 20.4223 58.6056 20.9534C59.9555 21.3221 60.687 21.2306 61.1479 20.6169M57.8322 19.6655L53.5005 26.9843L56.4765 28.1338L61.1479 20.6169M57.8322 19.6655L61.1479 20.6169" stroke="black"/>
<path d="M21.8238 10.6888C21.9519 8.01261 23.1661 7.31319 26.4392 6.84841C30.3513 6.67432 32.0089 4.48008 33.4428 8.09588L39.9291 17.7006C40.6967 18.126 41.0796 18.49 41.0486 18.9782L45.6661 26.1201L42.7378 27.3863L37.7731 20.0599C37.4944 19.7179 37.2982 19.1999 37.118 18.4969L30.7718 10.425C28.0063 10.5381 29.3691 11.8446 21.8238 10.6888Z" fill="black"/>
<path d="M33.4428 8.09588C32.0089 4.48008 30.3513 6.67432 26.4392 6.84841C23.1661 7.31319 21.9519 8.01261 21.8238 10.6888C29.3691 11.8446 28.0063 10.5381 30.7718 10.425M33.4428 8.09588C33.6382 9.8176 32.2218 9.90415 30.7718 10.425M33.4428 8.09588L39.9291 17.7006M33.4428 8.09588L30.7718 10.425M30.7718 10.425L37.118 18.4969M39.9291 17.7006L37.118 18.4969M39.9291 17.7006L38.0788 16.7399L37.118 18.4969M39.9291 17.7006C40.6967 18.126 41.0796 18.49 41.0486 18.9782M37.118 18.4969C37.2982 19.1999 37.4944 19.7179 37.7731 20.0599M41.0486 18.9782C41.0263 19.3298 40.7893 19.7459 40.3267 20.2956C38.9924 20.7174 38.2579 20.6548 37.7731 20.0599M41.0486 18.9782L45.6661 26.1201L42.7378 27.3863L37.7731 20.0599M41.0486 18.9782L37.7731 20.0599" stroke="black"/>
<path d="M89.4107 32.3078C90.9983 29.9144 90.4795 28.5576 88.1842 26.1285C85.2001 23.555 85.2739 20.631 81.8579 22.8695L70.6664 27.1572C69.7908 27.0496 69.2583 27.1272 68.9747 27.5686L60.8155 30.8842L62.3323 33.7927L70.8825 30.5326C71.3188 30.4095 71.8008 30.0831 72.387 29.5868L82.5004 26.5377C84.6162 28.3483 82.7138 28.6339 89.4107 32.3078Z" fill="black"/>
<path d="M81.8579 22.8695C85.2739 20.631 85.2001 23.555 88.1842 26.1285C90.4795 28.5576 90.9983 29.9144 89.4107 32.3078C82.7138 28.6339 84.6162 28.3483 82.5004 26.5377M81.8579 22.8695C80.6167 24.2372 81.6823 25.1893 82.5004 26.5377M81.8579 22.8695L70.6664 27.1572M81.8579 22.8695L82.5004 26.5377M82.5004 26.5377L72.387 29.5868M70.6664 27.1572L72.387 29.5868M70.6664 27.1572L72.736 27.4725L72.387 29.5868M70.6664 27.1572C69.7908 27.0496 69.2583 27.1272 68.9747 27.5686M72.387 29.5868C71.8008 30.0831 71.3188 30.4095 70.8825 30.5326M68.9747 27.5686C68.7704 27.8864 68.6953 28.393 68.7141 29.1548C69.5032 30.346 70.1236 30.7468 70.8825 30.5326M68.9747 27.5686L60.8155 30.8842L62.3323 33.7927L70.8825 30.5326M68.9747 27.5686L70.8825 30.5326" stroke="black"/>
<path d="M9.65627 29.1538C8.19472 26.6814 8.78317 25.3533 11.2012 23.0464C14.3146 20.6309 14.3923 17.707 17.6878 20.1194L28.6422 24.981C29.5222 24.9189 30.05 25.024 30.3103 25.4794L38.2868 29.2132L36.6214 32.0392L28.2515 28.3406C27.8222 28.1951 27.3577 27.8442 26.798 27.3182L16.8562 23.7494C14.6494 25.448 16.5344 25.8318 9.65627 29.1538Z" fill="black"/>
<path d="M17.6878 20.1194C14.3923 17.707 14.3146 20.6309 11.2012 23.0464C8.78317 25.3533 8.19472 26.6814 9.65627 29.1538C16.5344 25.8318 14.6494 25.448 16.8562 23.7494M17.6878 20.1194C18.8564 21.5495 17.743 22.4451 16.8562 23.7494M17.6878 20.1194L28.6422 24.981M17.6878 20.1194L16.8562 23.7494M16.8562 23.7494L26.798 27.3182M28.6422 24.981L26.798 27.3182M28.6422 24.981L26.559 25.1887L26.798 27.3182M28.6422 24.981C29.5222 24.9189 30.05 25.024 30.3103 25.4794M26.798 27.3182C27.3577 27.8442 27.8222 28.1951 28.2515 28.3406M30.3103 25.4794C30.4978 25.8075 30.5466 26.3172 30.4884 27.0771C29.6386 28.2257 28.9983 28.5938 28.2515 28.3406M30.3103 25.4794L38.2868 29.2132L36.6214 32.0392L28.2515 28.3406M30.3103 25.4794L28.2515 28.3406" stroke="black"/>
<path d="M86.7186 53.2753C89.396 51.9987 89.6859 50.5491 89.0226 47.255C87.8418 43.4823 89.4982 40.9683 85.323 41.1742L73.3032 39.1908C72.6042 38.649 72.1011 38.4443 71.6153 38.6844L62.749 37.4039L62.4775 40.7182L71.652 42.2472C72.0966 42.3629 72.6915 42.3247 73.469 42.1915L83.8812 44.7043C84.7261 47.3669 82.9243 46.6429 86.7186 53.2753Z" fill="black"/>
<path d="M85.323 41.1742C89.4982 40.9683 87.8418 43.4823 89.0226 47.255C89.6859 50.5491 89.396 51.9987 86.7186 53.2753C82.9243 46.6429 84.7261 47.3669 83.8812 44.7043M85.323 41.1742C83.5041 41.7329 83.9077 43.109 83.8812 44.7043M85.323 41.1742L73.3032 39.1908M85.323 41.1742L83.8812 44.7043M83.8812 44.7043L73.469 42.1915M73.3032 39.1908L73.469 42.1915M73.3032 39.1908L74.9226 40.5248L73.469 42.1915M73.3032 39.1908C72.6042 38.649 72.1011 38.4443 71.6153 38.6844M73.469 42.1915C72.6915 42.3247 72.0966 42.3629 71.652 42.2472M71.6153 38.6844C71.2654 38.8573 70.9246 39.2609 70.526 39.9355C70.5601 41.3787 70.8787 42.0459 71.652 42.2472M71.6153 38.6844L62.749 37.4039L62.4775 40.7182L71.652 42.2472M71.6153 38.6844L71.652 42.2472" stroke="black"/>
<path d="M9.13054 51.9626C6.49491 50.602 6.25096 49.144 7.0181 45.8725C8.31756 42.139 6.74153 39.5739 10.9081 39.9117L22.9846 38.3094C23.7004 37.7899 24.2097 37.6012 24.6877 37.8566L33.5901 36.8571L33.7566 40.1783L24.5383 41.4165C24.0903 41.5181 23.4969 41.4611 22.724 41.3033L12.2376 43.4856C11.3089 46.1202 13.1327 45.4536 9.13054 51.9626Z" fill="black"/>
<path d="M10.9081 39.9117C6.74153 39.5739 8.31756 42.139 7.0181 45.8725C6.25096 49.144 6.49491 50.602 9.13054 51.9626C13.1327 45.4536 11.3089 46.1202 12.2376 43.4856M10.9081 39.9117C12.7084 40.5276 12.2615 41.8903 12.2376 43.4856M10.9081 39.9117L22.9846 38.3094M10.9081 39.9117L12.2376 43.4856M12.2376 43.4856L22.724 41.3033M22.9846 38.3094L22.724 41.3033M22.9846 38.3094L21.3239 39.5915L22.724 41.3033M22.9846 38.3094C23.7004 37.7899 24.2097 37.6012 24.6877 37.8566M22.724 41.3033C23.4969 41.4611 24.0903 41.5181 24.5383 41.4165M24.6877 37.8566C25.0319 38.0405 25.3599 38.4547 25.7369 39.1415C25.6572 40.5829 25.3177 41.2397 24.5383 41.4165M24.6877 37.8566L33.5901 36.8571L33.7566 40.1783L24.5383 41.4165M24.6877 37.8566L24.5383 41.4165" stroke="black"/>
<path d="M80.1838 71.82C83.1497 71.7881 84.0225 70.595 84.8065 67.3274C85.3223 63.4081 87.8825 61.8241 84.0081 60.2546L73.9379 53.399C73.5316 52.6134 73.1613 52.216 72.6196 52.2295L65.1146 47.3381L63.4741 50.2307L71.1542 55.4772C71.5088 55.7692 72.0646 55.9848 72.826 56.191L81.2151 62.8506C80.8615 65.6216 79.5315 64.2069 80.1838 71.82Z" fill="black"/>
<path d="M84.0081 60.2546C87.8825 61.8241 85.3223 63.4081 84.8065 67.3274C84.0225 70.595 83.1497 71.7881 80.1838 71.82C79.5315 64.2069 80.8615 65.6216 81.2151 62.8506M84.0081 60.2546C82.123 59.9963 81.9102 61.4145 81.2151 62.8506M84.0081 60.2546L73.9379 53.399M84.0081 60.2546L81.2151 62.8506M81.2151 62.8506L72.826 56.191M73.9379 53.399L72.826 56.191M73.9379 53.399L74.8458 55.2904L72.826 56.191M73.9379 53.399C73.5316 52.6134 73.1613 52.216 72.6196 52.2295M72.826 56.191C72.0646 55.9848 71.5088 55.7692 71.1542 55.4772M72.6196 52.2295C72.2295 52.2392 71.7504 52.462 71.105 52.9063C70.5289 54.2299 70.5373 54.9692 71.1542 55.4772M72.6196 52.2295L65.1146 47.3381L63.4741 50.2307L71.1542 55.4772M72.6196 52.2295L71.1542 55.4772" stroke="black"/>
<path d="M21.6149 70.3191C18.6668 70.6457 17.6563 69.5667 16.4835 66.4177C15.4981 62.5894 12.7653 61.3262 16.4218 59.3003L25.5904 51.2786C25.8988 50.4497 26.2184 50.0105 26.7578 49.9585L33.6171 44.1965L35.5949 46.8698L28.6047 53.0054C28.2879 53.3381 27.7622 53.6193 27.0313 53.9159L19.5079 61.54C20.1935 64.2479 21.343 62.6829 21.6149 70.3191Z" fill="black"/>
<path d="M16.4218 59.3003C12.7653 61.3262 15.4981 62.5894 16.4835 66.4177C17.6563 69.5667 18.6668 70.6457 21.6149 70.3191C21.343 62.6829 20.1935 64.2479 19.5079 61.54M16.4218 59.3003C18.262 58.8162 18.6444 60.1983 19.5079 61.54M16.4218 59.3003L25.5904 51.2786M16.4218 59.3003L19.5079 61.54M19.5079 61.54L27.0313 53.9159M25.5904 51.2786L27.0313 53.9159M25.5904 51.2786L24.9175 53.2658L27.0313 53.9159M25.5904 51.2786C25.8988 50.4497 26.2184 50.0105 26.7578 49.9585M27.0313 53.9159C27.7622 53.6193 28.2879 53.3381 28.6047 53.0054M26.7578 49.9585C27.1462 49.921 27.6487 50.0843 28.343 50.4474C29.0748 51.6918 29.1557 52.4267 28.6047 53.0054M26.7578 49.9585L33.6171 44.1965L35.5949 46.8698L28.6047 53.0054M26.7578 49.9585L28.6047 53.0054" stroke="black"/>
<path d="M51.9916 26.3277L51.7519 26.1679C51.5994 26.0662 51.4006 26.0662 51.2481 26.1679C50.8742 26.4172 51.0686 27.0435 51.4695 27.2465C51.759 27.3931 51.873 27.627 51.5 28C50.9445 28.5555 51.469 28.1853 52.045 27.7464C52.5221 27.3829 52.4906 26.6604 51.9916 26.3277Z" fill="white" stroke="white"/>
<path d="M47.0084 26.3277L47.2481 26.1679C47.4006 26.0662 47.5994 26.0662 47.7519 26.1679C48.1258 26.4172 47.9314 27.0435 47.5305 27.2465C47.241 27.3931 47.127 27.627 47.5 28C48.0555 28.5555 47.531 28.1853 46.955 27.7464C46.4779 27.3829 46.5094 26.6604 47.0084 26.3277Z" fill="white" stroke="white"/>
<path d="M57.2013 29.6457L55.8275 28.4229C55.7812 28.3818 55.7169 28.3678 55.6577 28.386C55.4827 28.4398 55.4931 28.6994 55.6691 28.7498C56.5166 28.9924 56.8097 29.2763 56.7953 29.7471C56.7899 29.9243 56.9484 30.0813 57.1178 30.0291C57.2855 29.9775 57.3324 29.7624 57.2013 29.6457Z" fill="white" stroke="white"/>
<path d="M42.6668 28.2249L41.1468 29.2602C41.0956 29.2951 41.0663 29.3541 41.0696 29.416C41.0793 29.5987 41.3336 29.6518 41.4253 29.4933C41.8667 28.7303 42.2132 28.5149 42.6665 28.6434C42.8371 28.6917 43.0278 28.5761 43.0184 28.399C43.0091 28.2238 42.8118 28.1261 42.6668 28.2249Z" fill="white" stroke="white"/>
<path d="M37.3191 34.0562L36.2873 35.5786C36.2525 35.6299 36.2471 35.6956 36.2729 35.7519C36.3493 35.9182 36.6052 35.8739 36.6321 35.6928C36.7614 34.8208 37.0043 34.493 37.473 34.4454C37.6494 34.4275 37.7841 34.2498 37.7102 34.0886C37.637 33.9292 37.4176 33.911 37.3191 34.0562Z" fill="white" stroke="white"/>
<path d="M34.2497 41.3936L33.9283 43.2044C33.9175 43.2654 33.9393 43.3276 33.9858 43.3684C34.1234 43.4892 34.339 43.3443 34.2897 43.1681C34.0522 42.3191 34.1403 41.9207 34.5488 41.6862C34.7026 41.5979 34.7532 41.3807 34.6199 41.2637C34.4881 41.1479 34.2803 41.2208 34.2497 41.3936Z" fill="white" stroke="white"/>
<path d="M62.0222 35.9323L61.1176 34.331C61.0871 34.2771 61.0307 34.243 60.9688 34.2411C60.7859 34.2355 60.7118 34.4845 60.862 34.5891C61.5855 35.0927 61.7711 35.456 61.6053 35.897C61.5428 36.0629 61.6421 36.2627 61.8193 36.2681C61.9947 36.2735 62.1086 36.085 62.0222 35.9323Z" fill="white" stroke="white"/>
<path d="M64.6122 43.8801L64.1266 42.1062C64.1102 42.0465 64.0639 41.9997 64.0043 41.9827C63.8283 41.9325 63.6956 42.1558 63.8156 42.2939C64.394 42.9593 64.4851 43.3569 64.2165 43.7439C64.1154 43.8896 64.1628 44.1075 64.3333 44.1561C64.502 44.2042 64.6585 44.0494 64.6122 43.8801Z" fill="white" stroke="white"/>
<path d="M52.3838 63.0024C47.8023 58.5559 45.3692 54.8978 42.5217 48H54.0217L62.0093 58.8067C62.35 59.2678 62.9781 59.9051 63.3763 60.3176C64.6594 61.6466 65.404 63.1512 66.0384 64.8862C66.3054 65.6162 66.3973 66.3762 66.3479 67.2687C66.2652 68.7633 65.7664 70.2578 64.7472 71.3542C64.0713 72.0811 63.2783 72.6018 62.2531 73.0522C60.4902 73.8268 58.5631 74.1278 56.6545 74.3823L52.0217 75L58.5885 80.7943C59.8663 81.9218 61.2257 83.2725 61.3411 84.9727C61.4846 87.0873 59.6564 88.6851 57.9117 89.8885C57.0413 90.4888 56.237 91 56.0217 91C55.6891 91 57.5831 89.4647 58.7576 87.776C59.8972 86.1376 59.1818 84.0726 57.7436 82.6889C55.9052 80.9202 53.3005 80.1049 50.8733 79.3196L40.9544 76.1106C38.6778 75.3741 36.5247 74.5028 34.7939 72.8506C32.771 70.9196 31.4726 68.1492 31.1122 65.376C30.8927 63.6874 30.9849 62.317 31.481 61.1738C33.4581 56.6173 40.4242 56.9315 44.5359 59.7182C46.3076 60.9189 47.9777 62.5911 49.9028 65.0337C50.6438 65.9739 52.0932 67.0454 53.2788 66.8796C55.0972 66.6255 53.7015 64.2812 52.3838 63.0024Z" fill="black" stroke="black"/>
<path d="M43 65.9999C41.733 64.2625 40.7729 63.7755 38.5 63.9999C38.2199 66.1167 38.3778 67.1969 40.5 68.4999C41.4032 69.0766 42.0124 69.3579 44 69.4999C44.116 68.1997 44.0175 67.4465 43 65.9999Z" fill="white"/>
<path d="M50 30.2316C50 29.9228 49 29.9229 49 30.2316L49.5 30.9229L50 30.2316Z" fill="white"/>
<path d="M51 32.5018C50.9999 31.8327 48 31.8328 48 32.5018L49.5001 34L51 32.5018Z" fill="white"/>
<path d="M52 35.7528C51.9999 34.7491 47 34.7492 47 35.7528L49.5001 38L52 35.7528Z" fill="white"/>
<path d="M53.6044 52.9575C53.2676 52.012 48.5575 53.6895 48.8942 54.6349L52.0033 55.9132L53.6044 52.9575Z" fill="white"/>
<path d="M56.6127 57.32C56.0941 56.4607 51.8133 59.0441 52.3318 59.9033L55.6334 60.5356L56.6127 57.32Z" fill="white"/>
<path d="M60.6699 61.6447C60.1512 60.7854 55.8704 63.3688 56.3889 64.228L59.6905 64.8603L60.6699 61.6447Z" fill="white"/>
<path d="M63.0553 66.7421C62.8853 65.7529 57.9576 66.599 58.1274 67.5881L60.9717 69.3799L63.0553 66.7421Z" fill="white"/>
<path d="M59.0338 72.1032C59.7318 71.3819 56.139 67.9048 55.441 68.6259L55.6746 71.9794L59.0338 72.1032Z" fill="white"/>
<path d="M52.5353 73.3311C53.5388 73.3516 53.6414 68.3528 52.638 68.3322L50.3399 70.7856L52.5353 73.3311Z" fill="white"/>
<path d="M47.7166 68.414C48.4188 69.1311 50.5622 67.0322 49.8601 66.3152L47.2161 65.7589L47.7166 68.414Z" fill="white"/>
<path d="M43.5722 64.7045C44.2744 65.4216 46.4179 63.3228 45.7158 62.6057L43.0718 62.0494L43.5722 64.7045Z" fill="white"/>
<path d="M39.103 61.7969C39.9965 62.2541 41.3631 59.5835 40.4698 59.1263L37.7859 59.4378L39.103 61.7969Z" fill="white"/>
<path d="M35.3374 63.0527C36.2439 62.6219 34.9562 59.9124 34.0498 60.3431L32.6639 62.6625L35.3374 63.0527Z" fill="white"/>
<path d="M36.1134 65.7472C35.7402 64.8155 32.9553 65.9308 33.3283 66.8624L35.5563 68.391L36.1134 65.7472Z" fill="white"/>
<path d="M38.4092 70.3387C37.6677 69.6622 35.6457 71.8783 36.3871 72.5548L39.0582 72.9614L38.4092 70.3387Z" fill="white"/>
<path d="M43.0124 72.447C42.0873 72.0577 40.9235 74.8226 41.8484 75.212L44.5016 74.7014L43.0124 72.447Z" fill="white"/>
<path d="M48.8578 74.2922C47.9327 73.9029 46.7689 76.6678 47.6938 77.0572L50.347 76.5466L48.8578 74.2922Z" fill="white"/>
<path d="M54.0325 77.2872C53.2349 76.678 51.7174 78.6646 52.5149 79.2739L55.0595 79.6447L54.0325 77.2872Z" fill="white"/>
<path d="M57.4167 80.3854C56.7569 79.8714 55.8351 81.0547 56.4948 81.5686L58.4331 82.1279L57.4167 80.3854Z" fill="white"/>
<path d="M60.6215 83.5593C60.243 82.8135 58.9054 83.4923 59.2839 84.2381L60.8002 85.5687L60.6215 83.5593Z" fill="white"/>
<path d="M61.0532 86.6629C61.2612 86.4009 60.6738 85.9345 60.4658 86.1965L60.2937 87.0163L61.0532 86.6629Z" fill="white"/>
<path d="M59.6245 88.4092C59.7285 88.2782 59.3369 87.9673 59.2329 88.0983L59.1958 88.547L59.6245 88.4092Z" fill="white"/>
<path d="M58.6245 89.4092C58.7285 89.2782 58.3369 88.9673 58.2329 89.0983L58.1958 89.547L58.6245 89.4092Z" fill="white"/>
<path d="M47 39.7527C47 38.7492 51.9999 38.749 52 39.7527L50.5 41.5L49.5 41.0008L48.5 41.5L47 39.7527Z" fill="white"/>
<path d="M46 43.9033C46 42.699 52.9998 42.6988 53 43.9033L50.9 46L49.5 45.4009L48.1 46L46 43.9033Z" fill="white"/>
<path d="M45 48.2044C45 46.5987 53.9998 46.5984 54 48.2044L51.3 51L49.5 50.2012L47.7 51L45 48.2044Z" fill="white"/>
</svg>
