<svg width="100" height="100" viewBox="0 0 100 100" fill="none" xmlns="http://www.w3.org/2000/svg">
<path d="M55.5214 26.0405C50.8349 23.4418 48.2079 23.2006 43.5214 26.0405C37.3746 30.5589 35.3888 33.1817 34.0214 38.0405C31.7099 48.1847 32.7043 51.5746 43.5214 48.5405C47.6932 49.8136 50.2044 50.102 55.5214 48.5405C65.8593 51.4605 67.9968 49.5648 66.0214 39.0405C63.1786 33.7406 61.4128 29.5774 55.5214 26.0405Z" fill="black" stroke="black"/>
<path d="M79.8684 15.8609C80.3918 13.2333 79.383 12.2608 76.3197 11.0176C72.5661 9.90185 71.4889 7.37166 69.2224 10.5329L60.6043 18.2821C59.7565 18.509 59.2969 18.7695 59.2088 19.2508L53 25.0627L55.5348 27L62.1251 21.0931C62.4783 20.8287 62.794 20.3736 63.139 19.7351L71.2502 13.4392C73.9061 14.2183 72.2676 15.1561 79.8684 15.8609Z" fill="black"/>
<path d="M69.2224 10.5329C71.4889 7.37166 72.5661 9.90185 76.3197 11.0176C79.383 12.2608 80.3918 13.2333 79.8684 15.8609C72.2676 15.1561 73.9061 14.2183 71.2502 13.4392M69.2224 10.5329C68.6161 12.1561 69.9694 12.5829 71.2502 13.4392M69.2224 10.5329L60.6043 18.2821M69.2224 10.5329L71.2502 13.4392M71.2502 13.4392L63.139 19.7351M60.6043 18.2821L63.139 19.7351M60.6043 18.2821L62.6321 17.7978L63.139 19.7351M60.6043 18.2821C59.7565 18.509 59.2969 18.7695 59.2088 19.2508M63.139 19.7351C62.794 20.3736 62.4783 20.8287 62.1251 21.0931M59.2088 19.2508C59.1454 19.5973 59.2746 20.0584 59.5904 20.7038C60.7829 21.436 61.5107 21.553 62.1251 21.0931M59.2088 19.2508L53 25.0627L55.5348 27L62.1251 21.0931M59.2088 19.2508L62.1251 21.0931" stroke="black"/>
<path d="M18.1316 15.8609C17.6082 13.2333 18.617 12.2608 21.6803 11.0176C25.4339 9.90185 26.5111 7.37166 28.7776 10.5329L37.3957 18.2821C38.2435 18.509 38.7031 18.7695 38.7912 19.2508L45 25.0627L42.4652 27L35.8749 21.0931C35.5217 20.8287 35.206 20.3736 34.861 19.7351L26.7498 13.4392C24.0939 14.2183 25.7324 15.1561 18.1316 15.8609Z" fill="black"/>
<path d="M28.7776 10.5329C26.5111 7.37166 25.4339 9.90185 21.6803 11.0176C18.617 12.2608 17.6082 13.2333 18.1316 15.8609C25.7324 15.1561 24.0939 14.2183 26.7498 13.4392M28.7776 10.5329C29.3839 12.1561 28.0306 12.5829 26.7498 13.4392M28.7776 10.5329L37.3957 18.2821M28.7776 10.5329L26.7498 13.4392M26.7498 13.4392L34.861 19.7351M37.3957 18.2821L34.861 19.7351M37.3957 18.2821L35.3679 17.7978L34.861 19.7351M37.3957 18.2821C38.2435 18.509 38.7031 18.7695 38.7912 19.2508M34.861 19.7351C35.206 20.3736 35.5217 20.8287 35.8749 21.0931M38.7912 19.2508C38.8546 19.5973 38.7254 20.0584 38.4096 20.7038C37.2171 21.436 36.4893 21.553 35.8749 21.0931M38.7912 19.2508L45 25.0627L42.4652 27L35.8749 21.0931M38.7912 19.2508L35.8749 21.0931" stroke="black"/>
<path d="M82.1557 30.6623C83.4555 28.1011 82.783 26.8135 80.2218 24.6666C76.9597 22.4561 76.6944 19.5432 73.5606 22.1623L62.941 27.7174C62.0589 27.7119 61.5389 27.8507 61.3083 28.3219L53.5881 32.5602L55.4315 35.2735L63.5467 31.045C63.9657 30.8722 64.4067 30.4922 64.9315 29.9313L74.6236 25.7314C76.9349 27.2848 75.0784 27.7888 82.1557 30.6623Z" fill="black"/>
<path d="M73.5606 22.1623C76.6944 19.5432 76.9597 22.4561 80.2218 24.6666C82.783 26.8135 83.4555 28.1011 82.1557 30.6623C75.0784 27.7888 76.9349 27.2848 74.6236 25.7314M73.5606 22.1623C72.4862 23.6645 73.6549 24.4868 74.6236 25.7314M73.5606 22.1623L62.941 27.7174M73.5606 22.1623L74.6236 25.7314M74.6236 25.7314L64.9315 29.9313M62.941 27.7174L64.9315 29.9313M62.941 27.7174L65.0333 27.7908L64.9315 29.9313M62.941 27.7174C62.0589 27.7119 61.5389 27.8507 61.3083 28.3219M64.9315 29.9313C64.4067 30.4922 63.9657 30.8722 63.5467 31.045M61.3083 28.3219C61.1423 28.6613 61.1263 29.1731 61.2333 29.9277C62.155 31.0194 62.8177 31.3456 63.5467 31.045M61.3083 28.3219L53.5881 32.5602L55.4315 35.2735L63.5467 31.045M61.3083 28.3219L63.5467 31.045" stroke="black"/>
<path d="M16.6468 29.7472C15.5532 27.0915 16.3253 25.861 19.0479 23.9229C22.4742 21.9767 22.9685 19.0938 25.8859 21.952L36.034 28.3278C36.9138 28.3919 37.4212 28.5713 37.6139 29.0592L44.9756 33.8935L42.9238 36.4529L35.1677 31.5972C34.7636 31.3918 34.3539 30.9782 33.875 30.3777L24.5446 25.4261C22.1179 26.7922 23.9288 27.4412 16.6468 29.7472Z" fill="black"/>
<path d="M25.8859 21.952C22.9685 19.0938 22.4742 21.9767 19.0479 23.9229C16.3253 25.861 15.5532 27.0915 16.6468 29.7472C23.9288 27.4412 22.1179 26.7922 24.5446 25.4261M25.8859 21.952C26.8384 23.5343 25.6085 24.2618 24.5446 25.4261M25.8859 21.952L36.034 28.3278M25.8859 21.952L24.5446 25.4261M24.5446 25.4261L33.875 30.3777M36.034 28.3278L33.875 30.3777M36.034 28.3278L33.9425 28.2359L33.875 30.3777M36.034 28.3278C36.9138 28.3919 37.4212 28.5713 37.6139 29.0592M33.875 30.3777C34.3539 30.9782 34.7636 31.3918 35.1677 31.5972M37.6139 29.0592C37.7527 29.4107 37.7282 29.9222 37.562 30.6659C36.557 31.6815 35.8707 31.9544 35.1677 31.5972M37.6139 29.0592L44.9756 33.8935L42.9238 36.4529L35.1677 31.5972M37.6139 29.0592L35.1677 31.5972" stroke="black"/>
<path d="M82.5085 48.6948C84.9813 47.0567 85.0658 45.5808 83.9488 42.4116C82.2525 38.841 83.5414 36.1202 79.436 36.9074L67.257 36.6228C66.4891 36.1839 65.9623 36.0515 65.5148 36.3571L56.5566 36.3279L56.7508 39.6477L66.049 39.8799C66.5054 39.9324 67.0891 39.8114 67.8404 39.5708L78.5015 40.6043C79.71 43.1227 77.8248 42.6576 82.5085 48.6948Z" fill="black"/>
<path d="M79.436 36.9074C83.5414 36.1202 82.2525 38.841 83.9488 42.4116C85.0658 45.5808 84.9813 47.0567 82.5085 48.6948C77.8248 42.6576 79.71 43.1227 78.5015 40.6043M79.436 36.9074C77.7129 37.7147 78.3048 39.0209 78.5015 40.6043M79.436 36.9074L67.257 36.6228M79.436 36.9074L78.5015 40.6043M78.5015 40.6043L67.8404 39.5708M67.257 36.6228L67.8404 39.5708M67.257 36.6228L69.0467 37.7174L67.8404 39.5708M67.257 36.6228C66.4891 36.1839 65.9623 36.0515 65.5148 36.3571M67.8404 39.5708C67.0891 39.8114 66.5054 39.9324 66.049 39.8799M65.5148 36.3571C65.1925 36.5772 64.9114 37.0245 64.6109 37.7482C64.8464 39.1724 65.255 39.7886 66.049 39.8799M65.5148 36.3571L56.5566 36.3279L56.7508 39.6477L66.049 39.8799M65.5148 36.3571L66.049 39.8799" stroke="black"/>
<path d="M15.291 47.8881C12.9185 46.108 12.9205 44.6297 14.2212 41.5314C16.1236 38.0661 14.9963 35.2745 19.0486 36.3008L31.2233 36.7299C32.0156 36.3367 32.5492 36.2354 32.9781 36.5667L41.9226 37.0621L41.5343 40.3648L32.2385 40.0521C31.7799 40.0778 31.2042 39.9229 30.4683 39.6387L19.765 40.0461C18.411 42.4895 20.3202 42.1355 15.291 47.8881Z" fill="black"/>
<path d="M19.0486 36.3008C14.9963 35.2745 16.1236 38.0661 14.2212 41.5314C12.9205 44.6297 12.9185 46.108 15.291 47.8881C20.3202 42.1355 18.411 42.4895 19.765 40.0461M19.0486 36.3008C20.7214 37.2077 20.054 38.477 19.765 40.0461M19.0486 36.3008L31.2233 36.7299M19.0486 36.3008L19.765 40.0461M19.765 40.0461L30.4683 39.6387M31.2233 36.7299L30.4683 39.6387M31.2233 36.7299L29.3725 37.7178L30.4683 39.6387M31.2233 36.7299C32.0156 36.3367 32.5492 36.2354 32.9781 36.5667M30.4683 39.6387C31.2042 39.9229 31.7799 40.0778 32.2385 40.0521M32.9781 36.5667C33.2869 36.8053 33.5414 37.2683 33.7989 38.0083C33.4805 39.4163 33.0364 40.0075 32.2385 40.0521M32.9781 36.5667L41.9226 37.0621L41.5343 40.3648L32.2385 40.0521M32.9781 36.5667L32.2385 40.0521" stroke="black"/>
<path d="M75.8776 69.2566C78.8221 69.614 79.8439 68.5456 81.0496 65.4091C82.0749 61.5912 84.8207 60.3566 81.1856 58.2926L72.1014 50.1756C71.8017 49.3435 71.4867 48.901 70.9478 48.8433L64.1491 43.01L62.1435 45.6625L69.0692 51.8708C69.3825 52.2068 69.9052 52.4934 70.633 52.7977L78.0763 60.5C77.3624 63.2006 76.2293 61.6237 75.8776 69.2566Z" fill="black"/>
<path d="M81.1856 58.2926C84.8207 60.3566 82.0749 61.5912 81.0496 65.4091C79.8439 68.5456 78.8221 69.614 75.8776 69.2566C76.2293 61.6237 77.3624 63.2006 78.0763 60.5M81.1856 58.2926C79.3506 57.7893 78.9537 59.1674 78.0763 60.5M81.1856 58.2926L72.1014 50.1756M81.1856 58.2926L78.0763 60.5M78.0763 60.5L70.633 52.7977M72.1014 50.1756L70.633 52.7977M72.1014 50.1756L72.7534 52.1697L70.633 52.7977M72.1014 50.1756C71.8017 49.3435 71.4867 48.901 70.9478 48.8433M70.633 52.7977C69.9052 52.4934 69.3825 52.2068 69.0692 51.8708M70.9478 48.8433C70.5598 48.8018 70.0557 48.9598 69.3576 49.3156C68.6129 50.5523 68.5242 51.2863 69.0692 51.8708M70.9478 48.8433L64.1491 43.01L62.1435 45.6625L69.0692 51.8708M70.9478 48.8433L69.0692 51.8708" stroke="black"/>
<path d="M27.1317 69.526C24.2465 70.2138 23.1105 69.2678 21.5581 66.2876C20.1078 62.6101 17.2401 61.6938 20.6186 59.2322L28.7273 50.1405C28.9311 49.2798 29.194 48.8046 29.7229 48.6864L35.8188 42.122L38.1114 44.5309L31.9317 51.4821C31.6583 51.8514 31.1714 52.1952 30.4826 52.5798L23.9575 61.0739C24.9721 63.6766 25.9196 61.9817 27.1317 69.526Z" fill="black"/>
<path d="M20.6186 59.2322C17.2401 61.6938 20.1078 62.6101 21.5581 66.2876C23.1105 69.2678 24.2465 70.2138 27.1317 69.526C25.9196 61.9817 24.9721 63.6766 23.9575 61.0739M20.6186 59.2322C22.385 58.5247 22.9351 59.849 23.9575 61.0739M20.6186 59.2322L28.7273 50.1405M20.6186 59.2322L23.9575 61.0739M23.9575 61.0739L30.4826 52.5798M28.7273 50.1405L30.4826 52.5798M28.7273 50.1405L28.3048 52.1955L30.4826 52.5798M28.7273 50.1405C28.9311 49.2798 29.194 48.8046 29.7229 48.6864M30.4826 52.5798C31.1714 52.1952 31.6583 51.8514 31.9317 51.4821M29.7229 48.6864C30.1037 48.6012 30.6225 48.7013 31.3563 48.9759C32.2361 50.1205 32.4071 50.8398 31.9317 51.4821M29.7229 48.6864L35.8188 42.122L38.1114 44.5309L31.9317 51.4821M29.7229 48.6864L31.9317 51.4821" stroke="black"/>
<path d="M51.9916 26.3277L51.7519 26.1679C51.5994 26.0662 51.4006 26.0662 51.2481 26.1679C50.8742 26.4172 51.0686 27.0435 51.4695 27.2465C51.759 27.3931 51.873 27.627 51.5 28C50.9445 28.5555 51.469 28.1853 52.045 27.7464C52.5221 27.3829 52.4906 26.6604 51.9916 26.3277Z" fill="white" stroke="white"/>
<path d="M47.0084 26.3277L47.2481 26.1679C47.4006 26.0662 47.5994 26.0662 47.7519 26.1679C48.1258 26.4172 47.9314 27.0435 47.5305 27.2465C47.241 27.3931 47.127 27.627 47.5 28C48.0555 28.5555 47.531 28.1853 46.955 27.7464C46.4779 27.3829 46.5094 26.6604 47.0084 26.3277Z" fill="white" stroke="white"/>
<path d="M57.2013 29.6457L55.8275 28.4229C55.7813 28.3818 55.7169 28.3678 55.6577 28.386C55.4828 28.4398 55.4931 28.6994 55.6691 28.7498C56.5166 28.9924 56.8097 29.2763 56.7953 29.7471C56.7899 29.9243 56.9484 30.0813 57.1179 30.0291C57.2856 29.9775 57.3324 29.7624 57.2013 29.6457Z" fill="white" stroke="white"/>
<path d="M42.6668 28.2249L41.1468 29.2602C41.0956 29.2951 41.0663 29.3541 41.0696 29.416C41.0793 29.5987 41.3336 29.6518 41.4253 29.4933C41.8667 28.7303 42.2132 28.5149 42.6665 28.6434C42.8371 28.6917 43.0278 28.5761 43.0184 28.399C43.0091 28.2238 42.8118 28.1261 42.6668 28.2249Z" fill="white" stroke="white"/>
<path d="M37.3191 34.0562L36.2873 35.5786C36.2525 35.6299 36.2471 35.6956 36.2729 35.7519C36.3493 35.9182 36.6052 35.8739 36.6321 35.6928C36.7614 34.8208 37.0043 34.493 37.473 34.4454C37.6494 34.4275 37.7841 34.2498 37.7102 34.0886C37.637 33.9292 37.4176 33.911 37.3191 34.0562Z" fill="white" stroke="white"/>
<path d="M34.2497 41.3936L33.9283 43.2044C33.9175 43.2654 33.9393 43.3276 33.9858 43.3684C34.1234 43.4892 34.339 43.3443 34.2897 43.1681C34.0522 42.3191 34.1403 41.9207 34.5488 41.6862C34.7026 41.5979 34.7532 41.3807 34.6199 41.2637C34.4881 41.1479 34.2803 41.2208 34.2497 41.3936Z" fill="white" stroke="white"/>
<path d="M62.0222 35.9323L61.1176 34.331C61.0871 34.2771 61.0307 34.243 60.9688 34.2411C60.7859 34.2355 60.7118 34.4845 60.862 34.5891C61.5855 35.0927 61.7711 35.456 61.6053 35.897C61.5428 36.0629 61.6421 36.2627 61.8193 36.2681C61.9947 36.2735 62.1086 36.085 62.0222 35.9323Z" fill="white" stroke="white"/>
<path d="M64.6122 43.8801L64.1266 42.1062C64.1102 42.0465 64.0639 41.9997 64.0043 41.9827C63.8283 41.9325 63.6956 42.1558 63.8156 42.2939C64.394 42.9593 64.4851 43.3569 64.2165 43.7439C64.1154 43.8896 64.1628 44.1075 64.3333 44.1561C64.502 44.2042 64.6585 44.0494 64.6122 43.8801Z" fill="white" stroke="white"/>
<path d="M52.3838 63.0024C47.8023 58.5559 45.3692 54.8978 42.5217 48H54.0217L62.0093 58.8067C62.35 59.2678 62.9781 59.9051 63.3763 60.3176C64.6594 61.6466 65.404 63.1512 66.0384 64.8862C66.3054 65.6162 66.3973 66.3762 66.3479 67.2687C66.2652 68.7633 65.7664 70.2578 64.7472 71.3542C64.0713 72.0811 63.2783 72.6018 62.2531 73.0522C60.4902 73.8268 58.5631 74.1278 56.6545 74.3823L52.0217 75L58.5885 80.7943C59.8663 81.9218 61.2257 83.2725 61.3411 84.9727C61.4846 87.0873 59.6564 88.6851 57.9117 89.8885C57.0413 90.4888 56.237 91 56.0217 91C55.6891 91 57.5831 89.4647 58.7576 87.776C59.8972 86.1376 59.1818 84.0726 57.7436 82.6889C55.9052 80.9202 53.3005 80.1049 50.8733 79.3196L40.9544 76.1106C38.6778 75.3741 36.5247 74.5028 34.7939 72.8506C32.771 70.9196 31.4726 68.1492 31.1122 65.376C30.8927 63.6874 30.9849 62.317 31.481 61.1738C33.4581 56.6173 40.4242 56.9315 44.5359 59.7182C46.3076 60.9189 47.9777 62.5911 49.9028 65.0337C50.6438 65.9739 52.0932 67.0454 53.2788 66.8796C55.0972 66.6255 53.7015 64.2812 52.3838 63.0024Z" fill="black" stroke="black"/>
<path d="M43 65.9999C41.733 64.2625 40.7729 63.7755 38.5 63.9999C38.2199 66.1167 38.3778 67.1969 40.5 68.4999C41.4032 69.0766 42.0125 69.3579 44 69.4999C44.116 68.1997 44.0176 67.4465 43 65.9999Z" fill="white"/>
<path d="M50 30.2316C50 29.9228 49 29.9229 49 30.2316L49.5 30.9229L50 30.2316Z" fill="white"/>
<path d="M51 32.5018C50.9999 31.8327 48 31.8328 48 32.5018L49.5001 34L51 32.5018Z" fill="white"/>
<path d="M52 35.7528C51.9999 34.7491 47 34.7492 47 35.7528L49.5001 38L52 35.7528Z" fill="white"/>
<path d="M53.6044 52.9575C53.2676 52.012 48.5575 53.6895 48.8942 54.6349L52.0033 55.9132L53.6044 52.9575Z" fill="white"/>
<path d="M56.6127 57.32C56.0941 56.4607 51.8133 59.0441 52.3318 59.9033L55.6334 60.5356L56.6127 57.32Z" fill="white"/>
<path d="M60.6699 61.6447C60.1512 60.7854 55.8704 63.3688 56.3889 64.228L59.6905 64.8603L60.6699 61.6447Z" fill="white"/>
<path d="M63.0553 66.7421C62.8853 65.7529 57.9576 66.599 58.1274 67.5881L60.9717 69.3799L63.0553 66.7421Z" fill="white"/>
<path d="M59.0338 72.1032C59.7318 71.3819 56.139 67.9048 55.441 68.6259L55.6746 71.9794L59.0338 72.1032Z" fill="white"/>
<path d="M52.5353 73.3311C53.5388 73.3516 53.6414 68.3528 52.638 68.3322L50.3399 70.7856L52.5353 73.3311Z" fill="white"/>
<path d="M47.7166 68.414C48.4188 69.1311 50.5622 67.0322 49.8601 66.3152L47.2161 65.7589L47.7166 68.414Z" fill="white"/>
<path d="M43.5722 64.7045C44.2744 65.4216 46.4179 63.3228 45.7158 62.6057L43.0718 62.0494L43.5722 64.7045Z" fill="white"/>
<path d="M39.103 61.7969C39.9965 62.2541 41.3631 59.5835 40.4698 59.1263L37.7859 59.4378L39.103 61.7969Z" fill="white"/>
<path d="M35.3374 63.0527C36.2439 62.6219 34.9562 59.9124 34.0498 60.3431L32.6639 62.6625L35.3374 63.0527Z" fill="white"/>
<path d="M36.1134 65.7472C35.7402 64.8155 32.9553 65.9308 33.3283 66.8624L35.5563 68.391L36.1134 65.7472Z" fill="white"/>
<path d="M38.4092 70.3387C37.6677 69.6622 35.6457 71.8783 36.3871 72.5548L39.0582 72.9614L38.4092 70.3387Z" fill="white"/>
<path d="M43.0124 72.447C42.0873 72.0577 40.9235 74.8226 41.8484 75.212L44.5016 74.7014L43.0124 72.447Z" fill="white"/>
<path d="M48.8578 74.2922C47.9327 73.9029 46.7689 76.6678 47.6938 77.0572L50.347 76.5466L48.8578 74.2922Z" fill="white"/>
<path d="M54.0325 77.2872C53.2349 76.678 51.7174 78.6646 52.5149 79.2739L55.0595 79.6447L54.0325 77.2872Z" fill="white"/>
<path d="M57.4167 80.3854C56.7569 79.8714 55.8351 81.0547 56.4948 81.5686L58.4331 82.1279L57.4167 80.3854Z" fill="white"/>
<path d="M60.6215 83.5593C60.243 82.8135 58.9054 83.4923 59.2839 84.2381L60.8002 85.5687L60.6215 83.5593Z" fill="white"/>
<path d="M61.0532 86.6629C61.2612 86.4009 60.6738 85.9345 60.4658 86.1965L60.2937 87.0163L61.0532 86.6629Z" fill="white"/>
<path d="M59.6245 88.4092C59.7285 88.2782 59.3369 87.9673 59.2329 88.0983L59.1958 88.547L59.6245 88.4092Z" fill="white"/>
<path d="M58.6245 89.4092C58.7285 89.2782 58.3369 88.9673 58.2329 89.0983L58.1958 89.547L58.6245 89.4092Z" fill="white"/>
<path d="M47 39.7527C47 38.7492 51.9999 38.749 52 39.7527L50.5 41.5L49.5 41.0008L48.5 41.5L47 39.7527Z" fill="white"/>
<path d="M46 43.9033C46 42.699 52.9998 42.6988 53 43.9033L50.9 46L49.5 45.4009L48.1 46L46 43.9033Z" fill="white"/>
<path d="M45 48.2044C45 46.5987 53.9998 46.5984 54 48.2044L51.3 51L49.5 50.2012L47.7 51L45 48.2044Z" fill="white"/>
</svg>
